<?xml version="1.0" standalone="no"?>
<!DOCTYPE svg PUBLIC "-//W3C//DTD SVG 20010904//EN"
 "http://www.w3.org/TR/2001/REC-SVG-20010904/DTD/svg10.dtd">
<svg version="1.0" xmlns="http://www.w3.org/2000/svg"
 width="960.000000pt" height="960.000000pt" viewBox="0 0 960.000000 960.000000"
 preserveAspectRatio="xMidYMid meet">
<metadata>
Created by potrace 1.11, written by Peter Selinger 2001-2013
</metadata>
<g transform="translate(0.000000,960.000000) scale(0.100000,-0.100000)"
fill="#000000" stroke="none">
<path d="M5133 6618 c-24 -16 -43 -33 -43 -38 0 -5 -15 -23 -32 -41 -18 -18
-26 -29 -18 -25 8 4 5 -1 -7 -12 -13 -11 -23 -25 -23 -31 0 -6 -3 -11 -8 -11
-4 0 -18 -18 -32 -40 -14 -22 -31 -40 -38 -40 -7 0 -10 -5 -7 -10 3 -6 -1 -13
-9 -16 -9 -3 -13 -10 -11 -15 3 -4 -3 -14 -15 -21 -11 -7 -20 -21 -20 -32 0
-11 -3 -16 -6 -13 -4 3 -20 -13 -37 -36 -17 -23 -35 -45 -41 -49 -6 -4 -7 -8
-2 -8 5 0 -3 -11 -17 -24 -14 -13 -23 -27 -20 -30 4 -3 2 -6 -3 -6 -5 0 -18
-14 -28 -30 -9 -17 -22 -28 -27 -24 -5 3 -8 2 -7 -3 4 -11 -44 -83 -54 -83 -5
0 -8 -7 -8 -15 0 -8 -7 -15 -16 -15 -8 0 -13 -4 -10 -9 3 -5 -1 -14 -9 -21 -8
-7 -12 -17 -8 -23 3 -6 1 -7 -5 -3 -7 4 -12 2 -12 -4 0 -6 -4 -8 -10 -5 -6 3
-7 -1 -4 -9 4 -9 -1 -18 -10 -22 -9 -3 -16 -11 -16 -17 0 -6 -10 -21 -22 -32
-13 -11 -23 -27 -23 -35 0 -8 -8 -14 -17 -14 -10 1 -16 -2 -13 -6 4 -7 -4 -19
-45 -67 -5 -7 -10 -16 -10 -20 0 -5 -13 -20 -30 -35 -16 -14 -26 -28 -23 -32
4 -3 0 -6 -7 -6 -7 0 -11 -3 -7 -6 8 -8 -16 -33 -25 -27 -4 2 -5 -4 -1 -13 4
-12 3 -15 -5 -10 -11 6 -17 -5 -13 -26 0 -5 -5 -8 -13 -8 -8 0 -20 -13 -27
-29 -7 -16 -18 -27 -23 -24 -5 4 -7 -1 -2 -12 6 -16 4 -16 -11 -4 -9 8 -14 9
-10 3 4 -7 -2 -23 -13 -37 -11 -14 -20 -30 -20 -35 0 -5 -7 -12 -15 -16 -8 -3
-15 -13 -15 -21 0 -9 -4 -13 -10 -10 -9 6 -15 -8 -11 -29 1 -5 -5 -6 -13 -3
-10 4 -18 -4 -25 -24 -5 -16 -15 -29 -20 -29 -6 0 -11 -5 -11 -11 0 -7 -8 -18
-17 -26 -12 -10 -13 -12 -3 -8 10 4 9 2 -2 -8 -10 -8 -18 -20 -18 -27 0 -7 -3
-10 -7 -7 -3 4 -17 -11 -30 -33 -13 -22 -28 -40 -34 -40 -5 0 -9 -5 -9 -10 0
-6 -12 -22 -26 -35 -15 -14 -24 -25 -20 -25 4 0 -3 -10 -16 -22 -13 -13 -17
-18 -8 -13 9 6 4 -2 -11 -17 -15 -14 -25 -29 -22 -32 4 -3 1 -6 -5 -6 -7 0
-12 -7 -12 -16 0 -8 -4 -12 -10 -9 -5 3 -10 2 -10 -4 0 -6 -10 -20 -22 -32
-13 -12 -16 -19 -8 -15 8 4 5 -1 -7 -12 -13 -11 -23 -25 -23 -31 0 -6 -8 -11
-17 -11 -15 0 -16 -2 -3 -10 15 -9 13 -11 -12 -14 -7 -1 -12 -9 -12 -19 1 -9
-4 -17 -12 -17 -8 0 -14 -4 -14 -10 0 -5 -8 -19 -17 -29 -34 -37 -43 -50 -43
-61 0 -6 -7 -13 -15 -16 -8 -4 -15 -13 -15 -21 0 -8 -4 -11 -10 -8 -5 3 -10
-1 -10 -9 0 -8 -10 -22 -22 -30 -12 -9 -18 -16 -13 -16 6 0 2 -7 -8 -14 -10
-8 -18 -17 -18 -20 2 -19 0 -27 -6 -23 -5 3 -14 -1 -21 -9 -7 -8 -9 -14 -5
-14 4 0 0 -5 -9 -11 -10 -5 -18 -16 -18 -23 0 -8 -7 -17 -16 -20 -9 -4 -14 -9
-11 -13 4 -3 -5 -16 -18 -29 -14 -13 -25 -30 -25 -40 0 -10 -5 -14 -16 -10 -8
3 -12 2 -9 -4 3 -6 1 -10 -4 -10 -6 0 -11 -6 -11 -12 0 -7 -12 -27 -28 -45
-19 -23 -31 -30 -42 -23 -8 5 -18 6 -22 4 -4 -3 -5 3 -1 12 5 14 3 16 -11 11
-9 -4 -15 -3 -12 1 3 5 -8 16 -25 26 -16 9 -29 21 -29 27 0 5 -5 9 -11 9 -6 0
-24 14 -39 30 -16 17 -31 31 -34 30 -20 -1 -28 1 -23 6 9 9 -21 36 -33 29 -5
-3 -12 6 -16 20 -3 13 -10 22 -15 19 -5 -3 -26 12 -46 33 -20 21 -33 31 -29
23 4 -8 -2 -4 -13 10 -11 14 -21 22 -21 19 0 -3 -21 14 -47 38 -26 23 -54 43
-61 43 -7 0 -10 5 -7 10 3 6 -1 10 -10 10 -9 0 -13 5 -10 10 3 6 0 10 -7 10
-7 0 -24 12 -37 25 -12 14 -28 22 -35 18 -6 -3 -8 -3 -4 2 8 8 -15 35 -30 35
-6 0 -13 7 -16 16 -3 8 -10 12 -16 9 -5 -3 -10 1 -10 9 0 8 -9 18 -20 21 -11
3 -20 11 -20 17 0 6 -3 8 -7 5 -3 -4 -13 -1 -21 6 -13 10 -14 9 -7 -2 6 -11 5
-12 -6 -5 -19 12 -59 13 -59 2 0 -5 -5 -6 -10 -3 -6 3 -13 -1 -16 -9 -3 -9
-10 -13 -15 -10 -5 3 -9 0 -9 -6 0 -6 -4 -9 -8 -6 -4 2 -9 -5 -9 -16 -1 -11
-8 -25 -16 -31 -19 -17 -52 -71 -36 -62 8 6 10 4 5 -4 -5 -7 -14 -10 -22 -7
-8 3 -13 2 -13 -2 4 -22 -2 -42 -11 -37 -5 3 -10 -2 -10 -12 -1 -19 -24 -56
-31 -49 -2 3 -9 -6 -16 -20 -8 -18 -8 -23 0 -18 7 3 5 0 -4 -8 -8 -7 -18 -21
-22 -31 -4 -10 -11 -15 -17 -12 -6 3 -7 -1 -4 -9 4 -10 1 -16 -7 -16 -7 0 -10
-3 -7 -6 4 -3 -1 -14 -10 -24 -34 -37 -43 -50 -35 -50 4 0 -1 -7 -11 -15 -11
-8 -17 -15 -13 -15 4 0 1 -10 -8 -23 -8 -13 -12 -27 -8 -32 5 -4 1 -6 -9 -2
-15 5 -25 -10 -32 -48 -1 -5 -7 -9 -14 -8 -7 2 -11 0 -10 -5 3 -16 -23 -63
-32 -57 -6 3 -7 -1 -4 -9 4 -9 -1 -18 -10 -22 -9 -3 -13 -10 -10 -15 3 -5 0
-9 -5 -9 -6 0 -11 -6 -11 -13 0 -8 -9 -22 -20 -32 -11 -10 -17 -21 -15 -25 3
-4 -2 -11 -11 -14 -9 -4 -14 -13 -10 -21 3 -9 0 -15 -10 -15 -8 0 -13 -4 -10
-9 3 -5 -7 -21 -22 -37 -15 -15 -20 -24 -12 -20 8 4 3 -4 -12 -17 -15 -14 -24
-27 -21 -30 3 -3 -7 -18 -21 -34 -14 -15 -26 -33 -26 -40 0 -7 -5 -13 -11 -13
-5 0 -7 -4 -4 -10 3 -6 1 -10 -5 -10 -6 0 -8 -4 -5 -10 3 -5 2 -10 -2 -10 -5
0 -19 -20 -33 -44 -13 -25 -28 -42 -34 -39 -5 4 -7 -1 -3 -10 3 -10 2 -17 -3
-17 -6 0 -10 -7 -10 -15 0 -8 -8 -15 -17 -16 -10 0 -13 -3 -6 -6 10 -3 10 -7
0 -18 -7 -7 -15 -11 -19 -8 -4 2 -5 -3 -2 -11 4 -9 1 -16 -6 -16 -7 0 -10 -7
-6 -15 3 -8 0 -14 -7 -12 -6 1 -13 -8 -15 -21 -2 -12 -8 -20 -13 -17 -8 5 -11
-1 -8 -21 0 -3 -9 -14 -21 -24 -12 -10 -22 -22 -23 -27 -1 -4 -6 -7 -10 -5 -5
1 -6 -2 -3 -7 4 -5 0 -16 -8 -24 -8 -8 -12 -17 -9 -21 3 -3 -2 -8 -11 -12 -9
-3 -14 -10 -11 -14 3 -5 -7 -21 -22 -36 -16 -16 -27 -33 -26 -39 2 -5 -8 -23
-22 -39 -14 -16 -25 -35 -25 -43 0 -7 -5 -13 -12 -13 -6 0 -8 -3 -5 -7 4 -3
-2 -12 -13 -20 -11 -8 -20 -21 -20 -29 0 -8 -5 -14 -11 -14 -5 0 -8 -4 -5 -9
3 -5 -1 -14 -9 -21 -8 -7 -15 -18 -15 -26 0 -7 -10 -20 -22 -28 -12 -9 -19
-16 -14 -16 4 0 -2 -12 -13 -26 -11 -15 -18 -30 -15 -35 3 -5 0 -9 -6 -9 -6 0
-8 -5 -5 -10 4 -6 1 -9 -7 -8 -7 2 -12 -3 -11 -9 2 -7 -4 -13 -12 -13 -8 0
-12 -6 -9 -13 2 -7 -5 -23 -16 -35 -11 -12 -17 -22 -13 -22 4 0 -3 -7 -15 -16
-12 -8 -22 -22 -22 -30 0 -8 -7 -17 -15 -20 -13 -5 -13 -9 -3 -22 7 -9 9 -13
3 -11 -5 3 -18 -2 -27 -12 -12 -12 -13 -19 -5 -23 7 -2 4 -5 -6 -5 -10 -1 -16
-5 -13 -9 3 -5 -4 -16 -15 -25 -10 -9 -19 -24 -19 -32 0 -8 -5 -15 -11 -15 -5
0 -7 -4 -4 -10 3 -5 1 -10 -4 -10 -6 0 -11 -7 -11 -15 0 -8 -4 -15 -10 -15 -5
0 -10 -7 -10 -15 0 -9 -7 -18 -15 -21 -8 -4 -13 -10 -10 -14 3 -4 -2 -13 -9
-20 -25 -20 -55 -88 -56 -122 0 -50 3 -68 12 -68 4 0 8 -7 8 -16 0 -8 4 -12
10 -9 5 3 10 1 10 -4 0 -6 7 -11 15 -11 9 0 18 -6 21 -13 4 -12 20 -13 79 -5
11 2 23 11 27 21 4 10 12 15 18 12 5 -3 10 1 10 9 0 8 9 18 20 21 11 4 18 11
15 16 -4 5 1 9 10 9 9 0 14 4 10 9 -3 5 5 17 17 25 12 9 18 16 13 16 -6 1 2 8
18 16 15 8 27 19 27 25 0 14 61 75 71 72 5 -2 5 5 2 14 -4 11 -2 14 5 9 6 -3
16 2 21 13 6 10 35 44 66 75 30 31 55 61 55 67 0 6 5 7 10 4 5 -3 10 -1 10 4
0 6 17 27 37 46 20 19 33 35 28 35 -6 1 3 8 18 16 15 8 25 19 22 24 -4 6 -1
10 5 10 6 0 8 4 5 10 -3 6 1 7 9 4 9 -3 16 -1 16 5 0 5 17 27 38 48 20 21 52
57 71 81 18 23 39 42 47 42 9 0 13 4 9 9 -3 5 5 17 17 26 13 8 23 21 23 28 1
6 6 11 13 10 7 -2 12 2 12 7 0 6 13 24 29 39 16 16 27 32 24 35 -4 3 -1 6 6 6
16 0 42 26 34 34 -4 3 1 6 10 6 9 0 17 5 17 11 0 7 16 27 35 46 19 19 35 39
35 44 0 6 3 8 8 6 4 -2 17 7 29 20 12 13 20 23 17 23 -3 0 1 6 8 14 7 8 16 12
20 9 5 -2 8 5 8 16 0 12 6 20 13 18 6 -1 11 3 10 10 -2 6 6 14 16 18 10 3 27
15 37 28 19 21 19 21 0 7 -18 -14 -18 -14 -6 7 8 12 16 21 19 21 18 -1 31 3
28 10 -1 5 13 23 31 41 17 18 32 37 32 42 0 6 4 7 10 4 6 -3 10 1 10 9 0 9 7
16 17 16 9 0 14 3 10 6 -7 8 17 34 32 34 6 0 11 5 11 11 0 5 -5 7 -12 3 -7 -4
-8 -3 -4 4 4 7 13 12 21 12 8 0 17 5 21 12 5 7 3 8 -6 3 -9 -5 -11 -4 -6 3 4
7 14 12 22 12 8 0 14 4 14 10 0 5 28 38 62 72 35 34 54 56 43 48 -19 -14 -19
-14 -6 3 7 9 20 17 27 17 8 0 13 6 11 13 -1 6 4 11 11 10 6 -2 12 6 12 18 0
11 5 17 10 14 6 -3 13 1 16 9 3 9 10 13 15 10 5 -3 6 3 2 12 -4 12 -3 15 5 10
7 -4 12 -3 12 2 0 18 78 93 83 80 4 -10 6 -10 6 1 1 16 41 -31 41 -49 0 -6 5
-8 10 -5 6 3 10 -3 10 -13 0 -22 23 -46 33 -35 4 3 7 -1 7 -10 0 -9 5 -17 12
-17 6 0 8 -3 5 -7 -4 -3 2 -13 14 -21 13 -9 18 -20 14 -30 -3 -9 -3 -13 1 -10
7 7 34 -15 34 -28 0 -4 10 -16 23 -28 25 -23 42 -55 38 -71 -2 -5 0 -7 4 -3
10 10 35 -17 35 -37 0 -9 4 -14 9 -11 9 6 56 -63 53 -77 -2 -5 1 -6 6 -3 5 3
16 -8 26 -25 9 -16 22 -29 27 -29 6 0 8 -3 6 -7 -2 -5 12 -24 32 -43 19 -19
31 -28 27 -20 -7 13 -6 13 6 0 7 -8 24 -14 38 -14 14 1 38 2 53 3 16 0 26 5
22 11 -3 6 -1 10 5 10 6 0 22 11 36 25 14 14 23 25 21 25 -2 0 22 28 54 61 32
34 56 66 53 71 -3 4 -2 7 3 6 12 -4 63 48 56 56 -4 3 2 6 12 6 10 0 16 3 13 6
-4 3 13 26 37 50 24 24 42 44 39 44 -3 0 10 14 28 32 18 18 32 36 30 40 -1 4
5 8 15 8 9 0 14 3 10 6 -3 3 17 27 44 54 27 26 49 53 49 59 0 6 4 11 8 11 4 0
22 19 40 42 18 23 32 38 32 34 0 -4 7 -1 15 8 8 8 15 20 15 26 0 6 7 13 15 16
8 4 15 13 15 21 0 8 5 11 10 8 6 -3 10 -1 10 4 0 13 41 56 54 56 5 0 10 7 12
16 2 20 40 60 48 52 3 -4 6 0 6 7 0 7 10 23 23 34 12 12 28 32 36 44 8 11 18
19 23 16 4 -3 8 1 8 9 0 19 34 49 45 40 4 -5 5 -2 1 4 -4 8 10 30 38 58 26 25
47 48 49 52 1 5 5 7 10 5 4 -1 7 3 7 8 0 6 12 23 28 39 54 56 102 113 102 123
0 5 5 6 10 3 6 -3 10 1 10 9 0 9 7 16 17 16 9 0 14 3 10 6 -3 4 6 19 21 35 15
16 36 40 47 53 10 14 24 22 29 19 5 -3 6 -1 3 5 -4 5 7 22 24 36 17 14 28 26
24 26 -3 0 12 18 34 39 22 21 37 42 34 45 -4 3 1 6 9 6 18 0 31 -37 16 -46 -6
-4 -5 -10 3 -15 10 -6 10 -9 2 -9 -7 0 -10 -7 -6 -17 5 -12 3 -14 -7 -8 -9 5
-11 4 -6 -4 11 -17 15 -61 6 -61 -9 0 -6 -32 4 -48 4 -6 4 -12 -1 -12 -4 0 -8
-49 -8 -109 0 -70 -4 -107 -10 -104 -5 3 -5 0 2 -7 8 -9 9 -19 2 -32 -6 -12
-6 -18 0 -18 6 0 8 -7 5 -15 -4 -8 -11 -12 -18 -8 -6 4 -5 -1 3 -10 7 -9 10
-17 6 -17 -4 0 -1 -8 6 -17 10 -11 10 -14 2 -9 -8 4 -13 2 -13 -6 0 -8 6 -20
13 -27 9 -11 9 -12 0 -7 -21 12 -13 -172 8 -187 9 -7 16 -16 15 -22 -1 -5 20
-17 47 -27 26 -10 47 -14 47 -10 0 4 10 8 21 9 12 1 29 9 38 17 10 9 21 13 24
9 4 -3 7 0 7 8 0 8 10 19 23 24 12 6 21 16 19 23 -1 7 5 12 13 12 8 0 28 13
45 30 16 16 30 26 30 23 0 -4 12 8 26 25 15 18 33 32 40 32 8 0 14 5 14 11 0
5 5 7 10 4 6 -3 10 1 10 10 0 9 3 14 8 12 10 -7 32 19 24 29 -4 4 -2 4 5 0 6
-3 18 3 27 15 8 12 19 18 25 14 6 -3 11 1 11 10 0 9 5 13 10 10 6 -3 10 1 10
10 0 9 4 14 8 11 5 -3 16 4 25 15 10 11 23 17 29 13 7 -4 8 -3 4 4 -3 6 3 16
14 22 11 6 17 16 14 22 -5 7 0 9 14 6 13 -4 20 -2 19 6 -1 6 5 9 13 8 8 -2 12
-1 8 3 -8 9 14 35 25 28 4 -2 7 3 7 11 0 9 3 15 8 15 19 -3 33 2 27 11 -3 6
-1 10 5 10 7 0 21 10 32 23 11 12 16 16 12 8 -5 -9 -3 -12 4 -7 7 4 12 14 12
22 0 8 5 12 10 9 6 -3 13 1 16 9 3 9 13 16 21 16 8 0 11 5 8 10 -3 6 -2 10 4
10 6 0 19 10 31 22 11 12 20 18 20 13 0 -4 17 9 38 31 20 21 39 38 42 39 3 0
4 3 2 8 -1 4 1 6 5 6 20 -3 34 2 28 11 -3 6 1 10 9 10 9 0 16 6 16 13 1 7 6 5
14 -5 7 -10 16 -15 20 -11 4 4 4 0 1 -9 -4 -9 -1 -19 4 -23 6 -3 9 -11 6 -16
-4 -5 -2 -9 2 -9 5 0 14 -9 21 -21 8 -12 9 -18 3 -14 -18 10 -12 -7 7 -22 10
-9 11 -11 2 -7 -15 8 14 -33 35 -48 6 -5 5 -8 -2 -8 -7 0 -10 -7 -7 -15 4 -8
11 -12 17 -8 5 3 7 1 3 -5 -3 -6 -2 -13 4 -17 5 -3 10 -15 10 -26 0 -10 5 -19
11 -19 5 0 7 -4 4 -10 -3 -5 -1 -10 6 -10 7 0 9 -3 6 -6 -3 -4 -1 -16 5 -28 7
-11 11 -24 10 -28 -1 -5 2 -8 8 -8 5 0 10 -9 10 -19 0 -11 4 -21 10 -23 5 -1
11 -15 12 -30 1 -15 7 -26 13 -25 5 1 9 -6 7 -15 -2 -12 4 -18 15 -18 15 0 16
-2 3 -10 -10 -6 -11 -10 -2 -10 6 0 12 -3 11 -7 -2 -15 13 -53 21 -53 4 0 10
-13 13 -29 3 -16 13 -36 22 -45 9 -9 14 -20 11 -25 -4 -5 1 -16 9 -24 8 -9 15
-21 15 -27 0 -6 4 -9 9 -6 5 3 11 -1 15 -9 3 -8 12 -15 21 -15 8 0 15 -5 15
-11 0 -5 5 -7 10 -4 6 3 10 1 10 -5 0 -7 6 -10 14 -7 8 3 17 -1 20 -9 3 -9 10
-12 16 -9 5 3 10 1 10 -4 0 -6 7 -11 15 -11 8 0 15 -4 15 -10 0 -5 7 -7 15 -4
8 3 25 -5 39 -19 18 -18 27 -22 36 -13 6 6 10 7 8 1 -2 -5 1 -11 5 -12 5 -1
15 -10 24 -20 8 -10 11 -12 8 -4 -8 14 44 -16 56 -33 4 -5 13 -5 20 -1 9 6 11
4 6 -7 -4 -12 -1 -14 14 -11 11 3 19 0 19 -6 0 -7 5 -9 10 -6 6 3 10 1 10 -5
0 -6 5 -8 10 -5 6 3 10 1 10 -5 0 -6 5 -8 10 -5 6 3 10 1 10 -4 0 -6 7 -11 15
-11 8 0 15 -5 15 -11 0 -5 5 -7 10 -4 6 3 13 -1 16 -10 6 -13 8 -14 15 -3 7
10 9 10 9 1 0 -7 7 -13 15 -13 9 0 18 -7 22 -16 3 -8 12 -13 19 -10 8 3 14 2
14 -3 0 -5 11 -12 25 -15 14 -4 25 -11 25 -17 0 -6 4 -8 9 -4 5 3 16 -2 24
-10 12 -11 17 -12 20 -2 3 7 6 5 6 -5 1 -10 8 -18 16 -18 8 0 15 -4 15 -10 0
-5 6 -7 14 -4 7 3 16 -2 20 -11 3 -10 12 -15 21 -11 8 3 15 1 15 -5 0 -6 5 -7
10 -4 6 3 10 -2 10 -11 0 -10 3 -15 6 -11 7 7 90 -73 87 -84 -2 -5 3 -8 10 -6
6 1 11 -3 10 -10 -2 -7 4 -10 12 -7 9 4 15 0 15 -10 0 -9 5 -16 11 -16 5 0 7
-4 4 -10 -3 -6 1 -7 9 -4 11 4 16 0 16 -10 0 -9 7 -16 17 -16 9 0 13 -3 10 -7
-4 -3 3 -11 16 -18 12 -6 21 -17 20 -23 -2 -6 6 -14 17 -17 11 -4 20 -13 20
-21 0 -8 3 -13 8 -13 17 3 35 -1 30 -7 -4 -3 11 -23 33 -43 21 -21 36 -41 32
-44 -3 -4 3 -5 14 -3 14 3 20 -1 19 -11 0 -8 8 -20 19 -27 30 -17 45 -33 38
-40 -4 -3 -1 -6 5 -6 16 0 142 -126 134 -135 -3 -3 1 -3 11 1 12 4 17 1 17
-10 0 -9 6 -16 12 -16 13 0 88 -79 88 -92 0 -5 4 -8 10 -8 15 0 50 -33 50 -48
0 -7 3 -11 8 -9 10 6 62 -50 53 -58 -3 -4 -1 -6 4 -5 19 4 38 0 32 -7 -4 -3 2
-13 13 -20 11 -8 17 -19 14 -25 -5 -7 -2 -8 5 -3 13 7 51 -26 51 -45 0 -5 3
-9 8 -7 4 1 7 0 7 -3 0 -11 30 -38 38 -33 4 2 10 -3 13 -11 3 -9 11 -13 17 -9
7 4 8 0 3 -13 -4 -10 -4 -15 0 -12 4 4 19 -6 34 -22 15 -16 30 -26 34 -23 3 3
6 1 6 -6 0 -15 19 -35 43 -44 9 -3 17 -14 17 -22 0 -9 5 -13 10 -10 6 3 10 -1
10 -9 0 -8 5 -18 12 -22 7 -5 8 -3 3 7 -8 12 -6 12 8 0 9 -7 17 -20 17 -27 0
-8 4 -14 9 -14 15 0 71 -53 71 -67 0 -7 6 -13 14 -13 8 0 24 -12 36 -27 12
-16 18 -22 14 -14 -5 9 -3 12 4 7 7 -4 12 -16 12 -27 0 -10 3 -18 8 -18 20 3
31 -3 37 -21 4 -11 10 -18 15 -15 5 3 12 -4 15 -16 4 -11 9 -18 12 -15 3 3 23
-13 43 -34 21 -22 43 -40 49 -40 6 0 11 -5 11 -11 0 -5 5 -7 10 -4 6 3 10 1
10 -6 0 -8 4 -8 15 1 8 7 15 8 15 3 0 -5 7 -10 15 -10 8 0 15 4 15 9 0 5 4 7
9 4 5 -3 23 7 41 23 30 25 33 34 35 88 2 49 -1 63 -16 74 -11 7 -19 19 -19 25
0 7 -7 15 -16 18 -8 3 -13 10 -9 15 3 5 -4 12 -15 16 -11 4 -18 10 -16 14 3 4
-3 14 -12 23 -27 24 -52 57 -52 69 0 5 -4 7 -10 4 -5 -3 -10 1 -10 10 0 9 -4
13 -10 10 -5 -3 -10 0 -10 7 0 8 -18 33 -40 56 -22 22 -40 46 -40 52 0 5 -3
10 -7 10 -5 0 -17 14 -28 30 -11 16 -27 30 -35 30 -13 0 -13 1 0 10 13 8 12
10 -4 10 -11 0 -17 3 -13 6 3 4 -12 24 -33 46 -22 21 -40 41 -40 45 0 11 -58
71 -64 66 -3 -3 -3 4 -1 16 2 12 0 19 -4 16 -5 -3 -11 2 -15 10 -3 8 -12 15
-20 15 -10 0 -13 7 -11 20 2 11 0 18 -6 15 -5 -4 -12 1 -15 10 -4 9 -24 33
-45 54 -21 22 -35 42 -31 45 3 4 -4 9 -16 13 -12 3 -20 8 -17 12 6 10 -41 62
-49 54 -3 -3 -6 2 -6 11 0 10 -17 34 -37 53 -21 19 -31 32 -23 28 8 -3 2 5
-15 20 -16 14 -29 30 -28 35 2 6 -2 10 -8 10 -5 0 -7 5 -4 10 3 6 0 10 -8 10
-8 0 -21 8 -28 17 -12 14 -12 16 1 9 8 -5 -4 10 -27 32 -23 22 -39 43 -36 46
4 3 0 6 -7 6 -7 0 -11 3 -7 6 7 7 -29 44 -43 44 -5 0 -9 3 -9 8 4 21 -3 32
-18 32 -9 0 -14 3 -10 6 3 3 -5 17 -19 31 -13 13 -24 28 -24 33 0 6 -7 10 -16
10 -8 0 -12 5 -9 10 3 6 1 10 -5 10 -6 0 -9 3 -7 8 6 9 -19 33 -27 25 -3 -4
-6 1 -6 10 0 10 -9 25 -20 34 -11 10 -20 23 -20 30 0 7 -7 13 -15 13 -8 0 -15
4 -15 9 0 5 -13 23 -30 41 -16 18 -27 37 -23 44 3 6 3 8 -2 4 -7 -7 -35 14
-35 27 0 3 -10 16 -22 29 -54 57 -78 85 -78 93 0 5 -9 15 -20 23 -11 8 -20 19
-20 26 0 6 -13 21 -30 34 -16 13 -30 27 -30 32 0 5 -11 20 -25 34 -14 14 -22
30 -19 36 4 7 2 8 -4 4 -7 -4 -12 -1 -12 8 0 9 -7 16 -15 16 -8 0 -15 4 -15
10 0 5 -10 18 -22 30 -12 11 -18 20 -13 20 4 0 -2 8 -13 19 -12 10 -22 25 -22
32 0 11 -2 11 -10 -1 -8 -12 -10 -11 -10 8 0 13 -6 22 -15 22 -9 0 -12 6 -8
15 3 10 0 15 -8 13 -7 -2 -18 7 -24 20 -5 12 -13 22 -17 22 -5 0 -8 6 -8 14 0
8 -5 18 -12 22 -7 5 -8 3 -3 -6 5 -9 4 -11 -3 -6 -7 4 -12 16 -12 26 0 13 -5
18 -15 13 -9 -3 -15 -2 -14 3 4 17 -13 44 -28 44 -8 0 -11 5 -8 10 3 6 1 10
-6 10 -7 0 -10 3 -6 6 9 9 -25 44 -36 37 -6 -3 -7 -1 -3 5 4 7 3 12 -2 12 -5
0 -15 14 -22 30 -7 17 -15 28 -18 25 -8 -8 -32 16 -26 26 3 5 -2 9 -10 9 -10
0 -13 6 -10 15 4 10 0 15 -12 15 -9 0 -15 3 -12 6 4 3 -9 21 -28 41 -19 19
-32 39 -28 44 3 5 -4 9 -15 9 -15 0 -19 4 -14 17 4 11 3 14 -5 9 -7 -4 -12 -1
-12 9 0 8 -10 20 -22 25 -13 5 -18 9 -11 9 6 1 -4 17 -23 36 -19 20 -34 40
-34 45 0 6 -7 10 -15 10 -8 0 -14 3 -14 8 3 20 -3 32 -17 32 -8 0 -13 4 -10 8
3 5 -4 15 -15 22 -10 8 -19 18 -19 22 0 4 -13 21 -30 39 -16 18 -27 36 -24 41
3 5 2 8 -3 7 -17 -3 -33 1 -32 9 3 20 -3 32 -17 32 -8 0 -12 5 -9 10 3 6 1 10
-5 10 -6 0 -8 5 -5 10 3 6 -1 10 -10 10 -9 0 -13 5 -10 10 3 6 -1 10 -10 10
-9 0 -13 5 -10 10 3 6 1 10 -5 10 -6 0 -8 5 -5 10 3 6 -1 10 -9 10 -9 0 -16 7
-16 15 0 8 -5 15 -10 15 -6 0 -16 11 -22 25 -6 14 -17 25 -25 25 -7 0 -13 6
-13 13 0 6 -16 30 -35 51 -19 22 -32 43 -29 48 3 4 -2 5 -10 2 -12 -4 -16 0
-16 16 0 11 -3 19 -7 17 -10 -6 -34 19 -26 27 4 3 1 6 -6 6 -7 0 -9 5 -6 10 4
6 1 9 -7 8 -7 -2 -12 3 -11 10 2 6 -4 12 -13 12 -10 0 -14 6 -11 14 4 9 -2 17
-14 21 -10 4 -19 10 -19 15 0 5 -11 21 -25 35 -14 14 -23 25 -20 25 3 0 -11
17 -30 37 -19 20 -35 41 -35 45 0 4 -8 8 -17 9 -12 0 -13 2 -5 6 9 3 3 14 -19
34 -18 16 -30 29 -26 29 4 0 -7 13 -23 28 -16 16 -27 32 -23 35 3 4 -1 7 -11
7 -9 0 -15 4 -12 8 2 4 -9 18 -25 31 -16 13 -29 32 -29 44 0 11 -3 18 -6 14
-7 -7 -34 17 -34 30 0 5 -9 15 -20 23 -11 8 -20 19 -20 24 0 5 -12 19 -26 32
-14 13 -22 29 -19 34 4 6 3 10 -2 9 -17 -3 -33 1 -32 9 3 17 -2 33 -8 29 -5
-3 -13 1 -20 8 -10 11 -10 15 0 18 9 4 9 6 0 6 -16 1 -53 38 -46 45 3 3 -2 8
-11 12 -9 3 -16 13 -16 21 0 8 -4 11 -10 8 -5 -3 -10 0 -10 8 0 8 -7 18 -16
21 -9 4 -14 9 -11 12 8 8 -18 34 -33 34 -6 0 -8 5 -5 10 3 6 1 10 -4 10 -6 0
-11 7 -11 16 0 8 -4 12 -10 9 -5 -3 -10 0 -10 7 0 18 -55 68 -75 68 -10 0 -13
5 -9 13 5 8 2 8 -9 -2 -12 -9 -21 -10 -29 -3 -9 7 -25 2 -55 -20z"/>
<path d="M7676 3087 c3 -10 9 -15 12 -12 3 3 0 11 -7 18 -10 9 -11 8 -5 -6z"/>
</g>
</svg>
